<?xml version="1.0" encoding="utf-8"?>
<svg version="1.1" xmlns="http://www.w3.org/2000/svg" xmlns:xlink="http://www.w3.org/1999/xlink" x="0px" y="0px" width="331px" height="225px" viewBox="141 -87 331 225" style="enable-background:new 141 -87 331 225;" xml:space="preserve">
<g>
    <path fill="#ffffff" d="M390.4,19.5c0,1.4,0,3.5-1.4,4.1c-1.4,0.8-2.4,1.8-4.5,1.1c-2-0.7-3.1-0.7-3.8-2.4c-0.7-1.7-1.4-3.5-1.4-3.5l-10-34.6l-7,38.3l22.9,82.8c1.1,4.2,0,7.3-1.4,9c-1.4,1.7-7.9,2.7-10.7-1.4c-2.8-4.1-2.8-6.2-2.8-6.2l-21.5-71L327,119.5c-3.8,7.6-15.6,7.6-13.5-4.5s3.1-13.1,3.1-13.1l26.6-126.4l-5.9,10.8l-6.5,14.5c-5,14.6-14.6,10.4-10.4-1.4c2.4-6.6,8.9-19.8,8.9-19.8L340-43.9l34.2,1.3l15,55.4C390.4,16.1,390.4,18.2,390.4,19.5"/>
    <path fill="#ffffff" d="M373.4-60.1c0,7.5-6.2,13.7-13.7,13.7c-7.6,0-13.8-6.2-13.8-13.7c0-7.6,6.2-13.7,13.8-13.7C367.2-73.8,373.4-67.6,373.4-60.1"/>
    <path fill="#ffffff" d="M249.9-35.1c-3.3-1.5-7.8-2.4-7.8-7.9c0-4.4,4.9-7.3,7.8-7V-35.1z M258.4-12.6c5,1.1,9,4.1,9,9.2c0,4.8-4.8,7.6-9,7.6V-12.6z M267.1-40.3H285c0.2-17.7-13-23.9-26.6-24.7v-7.1h-8.6v7.1c-13.3,2.2-25.8,7.5-25.8,25.3c0,17.3,13.7,20.9,25.8,25V3.4c-5.5-1.3-8.5-5.6-8.5-12h-18.7c0.2,17.9,12.3,26.9,27.2,27.5V30h8.6V19c15-0.6,27.6-6.9,27.6-25.7c0-17.2-14.7-22.2-27.6-26.6v-16C263.7-49.5,266.8-44.8,267.1-40.3"/>
</g>
</svg>
