<?xml version="1.0" encoding="utf-8"?>
<!-- Generator: Adobe Illustrator 19.2.0, SVG Export Plug-In . SVG Version: 6.00 Build 0)  -->
<svg version="1.1" id="Layer_1" xmlns="http://www.w3.org/2000/svg" xmlns:xlink="http://www.w3.org/1999/xlink" x="0px" y="0px"
	 width="180px" height="180px" viewBox="0 0 180 180" style="enable-background:new 0 0 180 180;" xml:space="preserve">
<style type="text/css">
	.st0{fill:#FFFFFF;}
</style>
<path class="st0" d="M158.3,53.5L158.3,53.5L158.3,53.5h-1.8l-21.7-26.1l-21.1,26.1h-1.9h0.2h-0.2l2.4,5h2l0,0l0,0l-1.6-3.2l4.9-5.8
	v9l0,0l0,0h16V39.4c0.4,2.2,1,5.7,1.6,8c0.5,1.9,1.1,4,2,6c0.7,1.9,1.6,3.7,2.9,5.1h8.5l0,0l0,0v-8.9l4.9,5.6l-1.1,2.7l-0.2,0.6l0,0
	l0,0h1.7l1.4-2.7L158.3,53.5z"/>
<g>
	<path class="st0" d="M136.3,140.1c-2.2,0-4,1.8-4,3.9c0,2.2,1.8,4,4,4s4-1.8,4-4C140.3,141.9,138.5,140.1,136.3,140.1z
		 M136.3,145.8c-0.9,0-1.7-0.8-1.7-1.7s0.8-1.7,1.7-1.7s1.7,0.8,1.7,1.7S137.3,145.8,136.3,145.8z"/>
	<path class="st0" d="M154.7,128.1c-0.3-2,0.3-2.6-1.7-3.4c-1.3-0.5-4.5-1.4-7.7-2.1c-1.8-0.4-3.6-0.7-5.1-0.8
		c-3.6-0.3-12.2,0-18,1.2c-0.7,0.1-2.4,0.6-2.7,0.7c-2.6,0.7-1.3,0-2.9,2c0,0-0.1,0.3-0.3,0.9c-0.3,0.8-0.7,2.2-1.1,3.9
		c-0.6,2.8,0.6,6.9,2,11.9h-4.7v2h1v3h3v-3.1c0,0,7.2,0.1,15.2,0.1c0,0-0.1-0.2-0.1-0.4c0-2.7,2.1-4.9,4.8-4.9c1,0,1.9,0.3,2.7,0.8
		c1.3,0.9,2.1,2.3,2.1,4c0,0.1,0,0.1,0,0.2c1.8,0,8.4-0.2,9.1-0.3c0.1,0,0.6-0.1,0.7-0.1c1.1-0.6,3.1-3.1,3.7-6
		C155.2,135.2,154.9,130,154.7,128.1z M129.5,142.5h-6v-15h6V142.5z M149.5,134.5h-11v-6.7l11,0.3V134.5z"/>
</g>
<g>
	<path class="st0" d="M127.6,85.1h-7.9c-0.5,0-0.9,0.3-1.2,0.7l-3.6,5.4l-3.8,4.8c-0.2,0.3-0.4,0.7-0.4,1.1v2.9
		c0,0.5,0.4,0.9,0.9,0.9h1.8c0,0,0,0.3,0,0.4c0,2.2,1.8,4,4,4s4-1.8,4-4c0-0.1,0-0.4,0-0.4h6.2c0.5,0,0.9-0.4,0.9-0.9V86
		C128.5,85.5,128.1,85.1,127.6,85.1z M117.4,103.9c-1.4,0-2.6-1.2-2.6-2.6s1.2-2.6,2.6-2.6s2.6,1.2,2.6,2.6
		C120,102.7,118.8,103.9,117.4,103.9z M126.2,91.5h-8.9l2.8-4.4c0.3-0.4,0.8-0.7,1.4-0.7h3.6c0.6,0,1.2,0.4,1.2,1L126.2,91.5
		L126.2,91.5z"/>
	<path class="st0" d="M158.1,80.3c0-0.5-0.4-1-1-1h-11.6l-1-2.2h-9.2h-9.2l-1,2.2h-8.6c-0.5,0-1,0.3-1.2,0.7l-1.6,3.1
		c0,0.5,0.4,1,1,1h8.5l0,0h5.4l1,1v0.4l0,0V101h13.9c0,0.1,0,0.2,0,0.3c0,1,0.4,1.9,1,2.6c0.7,0.9,1.8,1.4,3,1.4
		c1.3,0,2.4-0.6,3.1-1.5c0.5-0.7,0.9-1.5,0.9-2.5c0-0.1,0-0.2,0-0.3h6.7L158.1,80.3L158.1,80.3z M128.5,82.8H119v-2.5h9.5V82.8z
		 M136.8,99.6h-5.1V85.1h5.1V99.6z M144.1,91.5h-6v-6.4h6V91.5z M147.4,103.9c-1.4,0-2.6-1.2-2.6-2.6s1.2-2.6,2.6-2.6
		c1.4,0,2.6,1.2,2.6,2.6C150,102.7,148.9,103.9,147.4,103.9z M156.4,91.5h-11v-6.4h11V91.5z"/>
</g>
<path class="st0" d="M56,75.3c-3.6-1.6-8.4-2.6-8.4-8.5c0-4.7,5.2-7.8,8.4-7.6V75.3z M65.2,99.4c5.4,1.2,9.7,4.4,9.7,9.9
	c0,5.2-5.1,8.2-9.7,8.2V99.4z M74.5,69.7h19.3c0.2-19-14-25.7-28.6-26.6v-7.7H56v7.7c-14.3,2.3-27.8,8-27.8,27.2
	C28.2,89,42.9,92.8,56,97.3v19.4c-5.9-1.4-9.2-6.1-9.2-12.9H26.7c0.2,19.3,13.2,28.9,29.3,29.6v12h9.2v-12
	c16.1-0.6,29.7-7.4,29.7-27.7c0-18.6-15.8-23.9-29.7-28.6V59.9C70.8,59.8,74.2,64.8,74.5,69.7"/>
</svg>
