<?xml version="1.0" encoding="utf-8"?>
<!-- Generator: Adobe Illustrator 19.2.0, SVG Export Plug-In . SVG Version: 6.00 Build 0)  -->
<svg version="1.1" id="Layer_1" xmlns="http://www.w3.org/2000/svg" xmlns:xlink="http://www.w3.org/1999/xlink" x="0px" y="0px"
	 width="180px" height="180px" viewBox="0 0 180 180" style="enable-background:new 0 0 180 180;" xml:space="preserve">
<style type="text/css">
	.st0{fill:#FFFFFE;}
</style>
<g>
	<path class="st0" d="M129.6,78.1V60.9c5.7-0.1,9,4.8,9.4,9.8h19.3c0.2-19.1-14.1-25.8-28.7-26.7v-7.7h-9.3V44
		c-14.3,2.3-27.8,8.1-27.8,27.3c0,18.7,14.7,22.6,27.8,27v19.5c-5.9-1.4-9.2-6.1-9.2-12.9H91c0.2,19.4,13.3,29,29.4,29.7v12h9.3v-12
		c16.2-0.6,29.8-7.4,29.8-27.8C159.4,88.2,143.6,82.9,129.6,78.1z M120.4,76.3c-3.6-1.6-8.4-2.6-8.4-8.5c0-4.7,5.2-7.8,8.4-7.6V76.3
		z M129.6,118.6v-18.1c5.5,1.2,9.7,4.4,9.7,9.9C139.3,115.6,134.2,118.6,129.6,118.6z"/>
	<path class="st0" d="M81.3,85.6c0,1,0,2.6-1,3c-1,0.6-1.8,1.3-3.3,0.8c-1.5-0.5-2.3-0.5-2.8-1.8c-0.5-1.3-1-2.6-1-2.6l-7.4-25.5
		l-5.2,28.2l16.9,61c0.8,3.1,0,5.4-1,6.6c-1,1.2-5.8,2-7.9-1c-2.1-3.1-2.1-4.6-2.1-4.6L50.7,97.5l-16.1,61.8
		c-2.8,5.6-11.5,5.6-9.9-3.3c1.6-8.9,2.3-9.7,2.3-9.7l19.6-93.1l-4.3,8l-4.8,10.7c-3.7,10.8-10.8,7.6-7.7-1
		c1.8-4.9,6.6-14.6,6.6-14.6l7.9-17.3l25.2,1l11.1,40.8C81.3,83.1,81.3,84.6,81.3,85.6"/>
	<path class="st0" d="M68.8,27c0,5.6-4.5,10.1-10.1,10.1c-5.6,0-10.2-4.6-10.2-10.1c0-5.6,4.5-10.1,10.2-10.1
		C64.3,16.8,68.8,21.4,68.8,27"/>
</g>
</svg>
