<?xml version="1.0" encoding="utf-8"?>
<!-- Generator: Adobe Illustrator 19.2.0, SVG Export Plug-In . SVG Version: 6.00 Build 0)  -->
<svg version="1.1" id="Layer_1" xmlns="http://www.w3.org/2000/svg" xmlns:xlink="http://www.w3.org/1999/xlink" x="0px" y="0px"
	 width="222.3px" height="144px" viewBox="0 0 222.3 144" style="enable-background:new 0 0 222.3 144;" xml:space="preserve">
<style type="text/css">
	.st0{fill:#FFFFFF;}
	.st1{fill:#232221;}
	.st2{clip-path:url(#SVGID_2_);fill:#232221;}
	.st3{clip-path:url(#SVGID_4_);fill:#232221;}
	.st4{clip-path:url(#SVGID_6_);fill:#232221;}
	.st5{clip-path:url(#SVGID_8_);fill:#232221;}
	.st6{clip-path:url(#SVGID_10_);fill:#232221;}
	.st7{clip-path:url(#SVGID_12_);fill:#232221;}
	.st8{clip-path:url(#SVGID_14_);fill:#232221;}
	.st9{clip-path:url(#SVGID_16_);fill:#232221;}
	.st10{clip-path:url(#SVGID_18_);fill:#232221;}
	.st11{clip-path:url(#SVGID_20_);fill:#232221;}
	.st12{clip-path:url(#SVGID_22_);fill:#232221;}
	.st13{clip-path:url(#SVGID_24_);fill:#232221;}
	.st14{clip-path:url(#SVGID_26_);fill:#919190;}
	.st15{clip-path:url(#SVGID_28_);fill:#919190;}
	.st16{clip-path:url(#SVGID_30_);fill:#919190;}
	.st17{clip-path:url(#SVGID_32_);fill:#919190;}
	.st18{clip-path:url(#SVGID_34_);fill:#919190;}
	.st19{clip-path:url(#SVGID_36_);fill:#919190;}
	.st20{clip-path:url(#SVGID_38_);fill:#919190;}
	.st21{clip-path:url(#SVGID_40_);fill:#919190;}
	.st22{clip-path:url(#SVGID_42_);fill:#919190;}
	.st23{clip-path:url(#SVGID_44_);fill:#919190;}
	.st24{clip-path:url(#SVGID_46_);fill:#919190;}
	.st25{clip-path:url(#SVGID_48_);fill:#919190;}
	.st26{clip-path:url(#SVGID_50_);fill:#919190;}
	.st27{clip-path:url(#SVGID_52_);fill:#919190;}
	.st28{clip-path:url(#SVGID_54_);fill:#026937;}
	.st29{clip-path:url(#SVGID_56_);fill:#026937;}
	.st30{clip-path:url(#SVGID_58_);fill:#D13239;}
	.st31{clip-path:url(#SVGID_60_);fill:#D13239;}
	.st32{clip-path:url(#SVGID_62_);fill:#D13239;}
	.st33{clip-path:url(#SVGID_64_);fill:#D13239;}
	.st34{clip-path:url(#SVGID_66_);fill:#FFFFFF;}
	.st35{clip-path:url(#SVGID_68_);}
	.st36{clip-path:url(#SVGID_70_);fill:#232221;}
	.st37{clip-path:url(#SVGID_72_);fill:#232221;}
	.st38{clip-path:url(#SVGID_74_);}
	.st39{clip-path:url(#SVGID_76_);fill:#232221;}
</style>
<g>
	<path class="st0" d="M239.6,132.1c1-0.6,2.2-1.3,3.2-2c0,0-4.1,2.3-4.5,2.6C238.7,132.5,239.1,132.4,239.6,132.1z"/>
	<path class="st0" d="M242.8-11c0,0-234.7,0.7-242.5,0.9C0.2-3.3-0.4,1.1,0.5,7.3C2.1,18.1,4,28.7,6,39.4c0.9,3.3,1.9,6.5,2.8,9.9
		c5.2,19.4,2.2,8,0.6,2.3C16,76.5,22.4,98,46,116.8c15,11.9,38,18.2,63,21.7c0,0,0,0,0.1,0c25.5,3.5,62.7,7.9,94.2,4.1
		c10.6-0.9,30.4-7.6,31.1-7.9c1.3-0.6,2.6-1.2,3.9-1.9l4.5-2.6C242.8,129.7,242.8-11,242.8-11z"/>
</g>
<polygon class="st1" points="118.4,29.7 121.6,29.7 126.5,39.5 126.5,39.5 126.5,29.7 129,29.7 129,42.7 125.8,42.7 120.8,33.1 
	120.8,33.1 120.8,42.7 118.4,42.7 "/>
<g>
	<g>
		<defs>
			<rect id="SVGID_1_" x="56.6" y="27.7" width="128.2" height="66.7"/>
		</defs>
		<clipPath id="SVGID_2_">
			<use xlink:href="#SVGID_1_"  style="overflow:visible;"/>
		</clipPath>
		<path class="st2" d="M131.5,33.7c1-0.4,2.3-0.7,3.3-0.7c2.9,0,4.1,1.2,4.1,4.1v1.2c0,1,0,1.7,0,2.5s0,1.5,0.1,2.2h-2.2
			c-0.1-0.4-0.1-1.2-0.1-1.5l0,0c-0.6,1-1.9,1.6-2.9,1.6c-1.7,0-3.3-1-3.3-2.9c0-1.5,0.7-2.3,1.6-2.8c1-0.4,2.2-0.6,3.2-0.6h1.3
			c0-1.6-0.7-2-2.2-2c-1,0-2.2,0.4-2.9,1V33.7z M134.4,41.1c0.7,0,1.3-0.3,1.7-0.9c0.4-0.6,0.6-1.2,0.6-2h-1c-1.2,0-2.8,0.1-2.8,1.6
			C132.8,40.8,133.5,41.1,134.4,41.1"/>
	</g>
	<g>
		<defs>
			<rect id="SVGID_3_" x="56.6" y="27.7" width="128.2" height="66.7"/>
		</defs>
		<clipPath id="SVGID_4_">
			<use xlink:href="#SVGID_3_"  style="overflow:visible;"/>
		</clipPath>
		<path class="st3" d="M141.3,35h-1.9v-1.9h1.9v-1.9l2.5-0.9v2.8h2.2V35h-2.2v4.5c0,0.9,0.3,1.6,1.2,1.6c0.4,0,0.9-0.1,1.2-0.3
			l0.1,2c-0.6,0.1-1.2,0.3-1.9,0.3c-1.9,0-3.1-1.2-3.1-3.1V35z"/>
	</g>
	<g>
		<defs>
			<rect id="SVGID_5_" x="56.6" y="27.7" width="128.2" height="66.7"/>
		</defs>
		<clipPath id="SVGID_6_">
			<use xlink:href="#SVGID_5_"  style="overflow:visible;"/>
		</clipPath>
		<path class="st4" d="M147.2,29h2.5v2.3h-2.5V29z M147.2,33.2h2.5v9.6h-2.5V33.2z"/>
	</g>
	<g>
		<defs>
			<rect id="SVGID_7_" x="56.6" y="27.7" width="128.2" height="66.7"/>
		</defs>
		<clipPath id="SVGID_8_">
			<use xlink:href="#SVGID_7_"  style="overflow:visible;"/>
		</clipPath>
		<path class="st5" d="M155.9,33c2.9,0,5.1,1.9,5.1,5.1c0,2.8-1.9,4.9-5.1,4.9S151,40.8,151,38C150.8,34.8,153,33,155.9,33
			 M155.9,41.1c1.9,0,2.5-1.7,2.5-3.3c0-1.5-0.7-2.9-2.5-2.9c-1.6,0-2.5,1.5-2.5,2.9C153.4,39.4,154,41.1,155.9,41.1"/>
	</g>
	<g>
		<defs>
			<rect id="SVGID_9_" x="56.6" y="27.7" width="128.2" height="66.7"/>
		</defs>
		<clipPath id="SVGID_10_">
			<use xlink:href="#SVGID_9_"  style="overflow:visible;"/>
		</clipPath>
		<path class="st6" d="M162.2,33.2h2.3v1.3l0,0c0.7-1.2,1.9-1.6,3.2-1.6c2.3,0,3.2,1.6,3.2,3.8v6.1h-2.5v-5.1c0-1.2,0-2.8-1.6-2.8
			c-1.7,0-2.2,1.9-2.2,3.2v4.7h-2.5V33.2z"/>
	</g>
	<g>
		<defs>
			<rect id="SVGID_11_" x="56.6" y="27.7" width="128.2" height="66.7"/>
		</defs>
		<clipPath id="SVGID_12_">
			<use xlink:href="#SVGID_11_"  style="overflow:visible;"/>
		</clipPath>
		<path class="st7" d="M173.2,33.7c1-0.4,2.3-0.7,3.3-0.7c2.9,0,4.1,1.2,4.1,4.1v1.2c0,1,0,1.7,0,2.5s0,1.5,0.1,2.2h-2.2
			c-0.1-0.4-0.1-1.2-0.1-1.5l0,0c-0.6,1-1.9,1.6-2.9,1.6c-1.7,0-3.3-1-3.3-2.9c0-1.5,0.7-2.3,1.6-2.8c1-0.4,2.2-0.6,3.2-0.6h1.3
			c0-1.6-0.7-2-2.2-2c-1,0-2.2,0.4-2.9,1V33.7z M176.1,41.1c0.7,0,1.3-0.3,1.7-0.9c0.4-0.6,0.6-1.2,0.6-2h-1c-1.2,0-2.8,0.1-2.8,1.6
			C174.5,40.8,175.3,41.1,176.1,41.1"/>
	</g>
	<g>
		<defs>
			<rect id="SVGID_13_" x="56.6" y="27.7" width="128.2" height="66.7"/>
		</defs>
		<clipPath id="SVGID_14_">
			<use xlink:href="#SVGID_13_"  style="overflow:visible;"/>
		</clipPath>
		<rect x="182.4" y="28.7" class="st8" width="2.5" height="14"/>
	</g>
	<g>
		<defs>
			<rect id="SVGID_15_" x="56.6" y="27.7" width="128.2" height="66.7"/>
		</defs>
		<clipPath id="SVGID_16_">
			<use xlink:href="#SVGID_15_"  style="overflow:visible;"/>
		</clipPath>
		<path class="st9" d="M118.6,47.5h3.3c2.8,0,5.4,0.9,5.4,3.9c0,3.1-2.2,4.1-4.9,4.1h-1.2v4.9h-2.6V47.5z M121.3,53.5h0.9
			c1.3,0,2.5-0.4,2.5-1.9s-1.2-2-2.5-2h-0.9V53.5z"/>
	</g>
	<g>
		<defs>
			<rect id="SVGID_17_" x="56.6" y="27.7" width="128.2" height="66.7"/>
		</defs>
		<clipPath id="SVGID_18_">
			<use xlink:href="#SVGID_17_"  style="overflow:visible;"/>
		</clipPath>
		<path class="st10" d="M128.5,51.3c1-0.4,2.3-0.7,3.3-0.7c2.9,0,4.1,1.2,4.1,4.1v1.3c0,1,0,1.7,0,2.5c0,0.7,0,1.5,0.1,2.2h-2.2
			c-0.1-0.4-0.1-1.2-0.1-1.5l0,0c-0.6,1-1.9,1.6-2.9,1.6c-1.7,0-3.3-1-3.3-2.9c0-1.5,0.7-2.3,1.6-2.8c1-0.4,2.2-0.6,3.2-0.6h1.3
			c0-1.6-0.7-2-2.2-2c-1,0-2.2,0.4-2.9,1V51.3z M131.5,58.9c0.7,0,1.3-0.3,1.7-0.9c0.4-0.6,0.6-1.2,0.6-2h-1c-1.2,0-2.8,0.1-2.8,1.6
			C129.9,58.6,130.6,58.9,131.5,58.9"/>
	</g>
	<g>
		<defs>
			<rect id="SVGID_19_" x="56.6" y="27.7" width="128.2" height="66.7"/>
		</defs>
		<clipPath id="SVGID_20_">
			<use xlink:href="#SVGID_19_"  style="overflow:visible;"/>
		</clipPath>
		<path class="st11" d="M137.7,50.9h2.2V53l0,0c0.1-0.9,1.2-2.5,2.6-2.5c0.3,0,0.4,0,0.7,0.1v2.5c-0.3-0.1-0.7-0.1-1.2-0.1
			c-2,0-2,2.5-2,3.9v3.5h-2.5v-9.6H137.7z"/>
	</g>
	<g>
		<defs>
			<rect id="SVGID_21_" x="56.6" y="27.7" width="128.2" height="66.7"/>
		</defs>
		<clipPath id="SVGID_22_">
			<use xlink:href="#SVGID_21_"  style="overflow:visible;"/>
		</clipPath>
		<polygon class="st12" points="144.1,46.5 146.6,46.5 146.6,54.6 146.6,54.6 149.6,50.9 152.6,50.9 149.1,55.1 153,60.5 
			149.8,60.5 146.6,55.8 146.6,55.8 146.6,60.5 144.1,60.5 		"/>
	</g>
	<g>
		<defs>
			<rect id="SVGID_23_" x="56.6" y="27.7" width="128.2" height="66.7"/>
		</defs>
		<clipPath id="SVGID_24_">
			<use xlink:href="#SVGID_23_"  style="overflow:visible;"/>
		</clipPath>
		<path class="st13" d="M159.7,52.9c-0.7-0.3-1.3-0.4-2.2-0.4c-0.7,0-1.5,0.3-1.5,1c0,1.5,4.4,0.6,4.4,4.1c0,2.2-2,3.1-4.1,3.1
			c-1,0-1.9-0.1-2.8-0.4l0.1-2c0.7,0.4,1.6,0.6,2.5,0.6c0.6,0,1.6-0.3,1.6-1.2c0-1.9-4.4-0.6-4.4-4.1c0-2,1.7-2.9,3.8-2.9
			c1.2,0,1.9,0.1,2.8,0.3L159.7,52.9z"/>
	</g>
	<g>
		<defs>
			<rect id="SVGID_25_" x="56.6" y="27.7" width="128.2" height="66.7"/>
		</defs>
		<clipPath id="SVGID_26_">
			<use xlink:href="#SVGID_25_"  style="overflow:visible;"/>
		</clipPath>
		<path class="st14" d="M118.2,76.2c0.7,0.6,1.7,0.7,2.9,0.7c0.9,0,1.5-0.1,2-0.6c0.6-0.4,0.9-1.2,0.9-2c0-0.6-0.3-1.2-0.9-1.6
			c-0.3-0.3-0.6-0.4-1-0.6c-0.3-0.1-0.7-0.4-1.2-0.6c-0.4-0.1-0.7-0.4-1-0.7c-0.3-0.3-0.7-0.4-1-0.7c-0.6-0.6-0.9-1.2-0.9-2
			c0-1,0.4-1.9,1.2-2.5c0.7-0.6,1.7-0.9,2.9-0.9c0.3,0,0.7,0,1.2,0.1c0.4,0.1,0.9,0.1,1.3,0.3l-0.1,1.2c-0.6-0.3-1.5-0.4-2.3-0.4
			c-0.3,0-0.7,0-1,0.1c-0.3,0.1-0.6,0.1-0.9,0.4c-0.3,0.1-0.4,0.4-0.6,0.7c-0.1,0.3-0.3,0.7-0.3,1c0,0.3,0.1,0.6,0.3,0.9
			c0.1,0.3,0.4,0.4,0.7,0.7c0.3,0.1,0.6,0.4,1,0.6c0.3,0.1,0.7,0.4,1,0.6c0.7,0.4,1.5,0.9,2,1.5c0.3,0.3,0.6,0.6,0.7,1
			c0.1,0.4,0.3,0.9,0.3,1.3c0,1.3-0.4,2.2-1.3,2.8c-0.9,0.6-1.9,0.9-2.9,0.9c-1.3,0-2.2-0.3-2.9-0.6L118.2,76.2z"/>
	</g>
	<g>
		<defs>
			<rect id="SVGID_27_" x="56.6" y="27.7" width="128.2" height="66.7"/>
		</defs>
		<clipPath id="SVGID_28_">
			<use xlink:href="#SVGID_27_"  style="overflow:visible;"/>
		</clipPath>
		<path class="st15" d="M126.2,73.1c0-1.3,0.3-2.5,1-3.5c0.7-1,1.9-1.5,3.3-1.5c1.6,0,2.6,0.6,3.3,1.5c0.7,1,1,2.2,1,3.5
			c0,1.3-0.3,2.5-1,3.5s-1.9,1.5-3.3,1.5s-2.6-0.6-3.3-1.5C126.6,75.6,126.2,74.4,126.2,73.1 M127.5,73.1c0,1.2,0.3,2,0.9,2.8
			c0.6,0.7,1.3,1.2,2.3,1.2c1,0,1.9-0.4,2.3-1.2c0.6-0.7,0.7-1.6,0.7-2.8s-0.3-2-0.7-2.8c-0.6-0.7-1.3-1.2-2.3-1.2s-1.7,0.4-2.3,1.2
			C127.8,71.1,127.5,72,127.5,73.1"/>
	</g>
	<g>
		<defs>
			<rect id="SVGID_29_" x="56.6" y="27.7" width="128.2" height="66.7"/>
		</defs>
		<clipPath id="SVGID_30_">
			<use xlink:href="#SVGID_29_"  style="overflow:visible;"/>
		</clipPath>
		<path class="st16" d="M143.8,75.6c0,0.7,0,1.5,0.1,2.2h-1.2V76l0,0c-0.1,0.1-0.1,0.4-0.3,0.6c-0.1,0.3-0.3,0.4-0.6,0.6
			c-0.3,0.1-0.6,0.3-0.9,0.4c-0.3,0.1-0.7,0.1-1.3,0.1c-1.2,0-2-0.3-2.5-1c-0.4-0.7-0.7-1.6-0.7-2.6V68h1.2v5.8
			c0,0.9,0.1,1.6,0.6,2.2c0.3,0.6,0.9,0.9,1.7,0.9c0.6,0,1-0.1,1.3-0.3c0.4-0.1,0.7-0.4,0.9-0.9c0.3-0.3,0.4-0.7,0.4-1.2
			c0.1-0.4,0.1-0.7,0.1-1.2v-5.2h1.2v7.4H143.8z"/>
	</g>
	<g>
		<defs>
			<rect id="SVGID_31_" x="56.6" y="27.7" width="128.2" height="66.7"/>
		</defs>
		<clipPath id="SVGID_32_">
			<use xlink:href="#SVGID_31_"  style="overflow:visible;"/>
		</clipPath>
		<path class="st17" d="M150.1,69.3h-2.2v6.1c0,0.4,0.1,0.7,0.3,1.2c0.1,0.3,0.4,0.4,1,0.4c0.4,0,0.7-0.1,1-0.3l0.1,1
			c-0.1,0-0.3,0.1-0.6,0.1c-0.3,0-0.6,0.1-0.9,0.1c-0.6,0-0.9-0.1-1.2-0.3c-0.3-0.1-0.4-0.4-0.6-0.7c-0.1-0.3-0.1-0.6-0.3-1
			c0-0.4,0-0.7,0-1.2v-5.5H145v-1h1.9V66l1.2-0.4v2.8h2.2v1H150.1z"/>
	</g>
	<g>
		<defs>
			<rect id="SVGID_33_" x="56.6" y="27.7" width="128.2" height="66.7"/>
		</defs>
		<clipPath id="SVGID_34_">
			<use xlink:href="#SVGID_33_"  style="overflow:visible;"/>
		</clipPath>
		<path class="st18" d="M151.2,63.8h1.2v6.1l0,0c0.3-0.6,0.6-1,1.2-1.3c0.4-0.3,1.2-0.4,1.7-0.4c1.3,0,2.2,0.4,2.6,1.2
			c0.4,0.7,0.7,1.7,0.6,2.9v5.5h-1.2v-5.7c0-0.4,0-0.9-0.1-1.2c0-0.3-0.1-0.7-0.3-1c-0.3-0.6-0.9-0.9-1.9-0.9c-1,0-1.7,0.4-2.2,1.2
			c-0.4,0.7-0.6,1.6-0.6,2.5v5.1h-1.2v-14H151.2z"/>
	</g>
	<g>
		<defs>
			<rect id="SVGID_35_" x="56.6" y="27.7" width="128.2" height="66.7"/>
		</defs>
		<clipPath id="SVGID_36_">
			<use xlink:href="#SVGID_35_"  style="overflow:visible;"/>
		</clipPath>
		<path class="st19" d="M123,81.1h1.5l5.1,13h-1.3l-1.5-3.5h-6.5l-1.5,3.5h-1.3L123,81.1z M120.8,89.4h5.7l-2.8-7.1L120.8,89.4z"/>
	</g>
	<g>
		<defs>
			<rect id="SVGID_37_" x="56.6" y="27.7" width="128.2" height="66.7"/>
		</defs>
		<clipPath id="SVGID_38_">
			<use xlink:href="#SVGID_37_"  style="overflow:visible;"/>
		</clipPath>
		<path class="st20" d="M137.7,91.9c0,0.7,0,1.5,0.1,2.2h-1.2v-1.7l0,0c-0.1,0.1-0.1,0.4-0.3,0.6c-0.1,0.3-0.3,0.4-0.6,0.6
			c-0.3,0.1-0.6,0.3-0.9,0.4c-0.3,0.1-0.7,0.1-1.3,0.1c-1.2,0-2-0.3-2.5-1c-0.4-0.7-0.7-1.6-0.7-2.6v-6.1h1.2v5.8
			c0,0.9,0.1,1.6,0.6,2.2c0.3,0.6,0.9,0.9,1.7,0.9c0.6,0,1-0.1,1.3-0.3c0.4-0.1,0.7-0.4,0.9-0.9c0.3-0.3,0.4-0.7,0.4-1.2
			c0.1-0.4,0.1-0.7,0.1-1.2v-5.2h1.2v7.4H137.7z"/>
	</g>
	<g>
		<defs>
			<rect id="SVGID_39_" x="56.6" y="27.7" width="128.2" height="66.7"/>
		</defs>
		<clipPath id="SVGID_40_">
			<use xlink:href="#SVGID_39_"  style="overflow:visible;"/>
		</clipPath>
		<path class="st21" d="M141.5,93.3c0.6,0,1-0.1,1.5-0.4c0.4-0.3,0.6-0.7,0.6-1.2c0-0.6-0.3-1-0.7-1.3c-0.4-0.3-1-0.6-1.6-0.9
			c-0.3-0.1-0.6-0.3-0.9-0.4c-0.3-0.1-0.6-0.3-0.7-0.4c-0.1-0.1-0.4-0.4-0.6-0.7c-0.1-0.3-0.1-0.6-0.1-0.9c0-0.9,0.3-1.6,1-2
			c0.6-0.4,1.3-0.6,2.2-0.6c0.3,0,0.6,0,1,0.1c0.4,0.1,0.9,0.1,1.3,0.4l-0.1,1c-0.7-0.3-1.5-0.4-2-0.4c-0.6,0-1.2,0.1-1.5,0.3
			c-0.1,0.1-0.3,0.3-0.4,0.4c-0.1,0.1-0.1,0.4-0.1,0.7c0,0.1,0,0.4,0.1,0.6c0.1,0.1,0.3,0.3,0.6,0.4c0.3,0.1,0.4,0.3,0.7,0.4
			c0.3,0.1,0.6,0.3,0.9,0.4c0.6,0.3,1.2,0.6,1.6,1c0.4,0.4,0.7,1,0.7,1.7c0,0.4-0.1,0.9-0.3,1.3c-0.1,0.3-0.4,0.6-0.9,0.9
			c-0.7,0.4-1.5,0.6-2.2,0.6c-0.9,0-1.7-0.1-2.6-0.4l0.1-1.2C139.7,93.1,140.5,93.2,141.5,93.3"/>
	</g>
	<g>
		<defs>
			<rect id="SVGID_41_" x="56.6" y="27.7" width="128.2" height="66.7"/>
		</defs>
		<clipPath id="SVGID_42_">
			<use xlink:href="#SVGID_41_"  style="overflow:visible;"/>
		</clipPath>
		<path class="st22" d="M150.4,85.6h-2.2v6.1c0,0.4,0.1,0.7,0.3,1.2c0.1,0.3,0.4,0.4,1,0.4c0.4,0,0.7-0.1,1-0.3l0.1,1
			c-0.1,0-0.3,0.1-0.6,0.1s-0.6,0.1-0.9,0.1c-0.6,0-0.9-0.1-1.2-0.3s-0.4-0.4-0.6-0.7c-0.1-0.3-0.1-0.6-0.3-1c0-0.4,0-0.7,0-1.2
			v-5.5h-1.9v-1h1.9v-2.3l1.2-0.4v2.8h2.2v1H150.4z"/>
	</g>
	<g>
		<defs>
			<rect id="SVGID_43_" x="56.6" y="27.7" width="128.2" height="66.7"/>
		</defs>
		<clipPath id="SVGID_44_">
			<use xlink:href="#SVGID_43_"  style="overflow:visible;"/>
		</clipPath>
		<path class="st23" d="M151.7,86.7c0-0.9,0-1.6-0.1-2.2h1.2v1.9l0,0c0.3-0.6,0.6-1,1-1.5c0.4-0.4,0.9-0.6,1.5-0.6
			c0.3,0,0.6,0,0.9,0.1v1.2c-0.3-0.1-0.6-0.1-0.9-0.1c-0.4,0-0.9,0.1-1.2,0.3c-0.3,0.3-0.6,0.6-0.7,0.9c-0.1,0.4-0.3,0.7-0.4,1.2
			c-0.1,0.4-0.1,0.9-0.1,1.3v4.7h-1.2v-7.1H151.7z"/>
	</g>
	<g>
		<defs>
			<rect id="SVGID_45_" x="56.6" y="27.7" width="128.2" height="66.7"/>
		</defs>
		<clipPath id="SVGID_46_">
			<use xlink:href="#SVGID_45_"  style="overflow:visible;"/>
		</clipPath>
		<path class="st24" d="M162.2,92.5L162.2,92.5c-0.3,0.6-0.7,1-1.3,1.3c-0.6,0.3-1.2,0.4-1.7,0.4c-0.7,0-1.2-0.1-1.6-0.3
			s-0.7-0.4-1-0.7c-0.4-0.6-0.6-1.2-0.6-1.6c0-0.7,0.1-1.5,0.6-1.9c0.4-0.4,0.9-0.7,1.5-1c0.6-0.1,1.2-0.3,1.9-0.4
			c0.7,0,1.3,0,1.9,0h0.3v-0.4c0-1.6-0.7-2.5-2.2-2.5c-1,0-1.9,0.3-2.8,0.7v-1c0.9-0.4,1.7-0.6,2.8-0.7c2.2,0,3.3,1.2,3.3,3.5V92
			c0,0.7,0,1.5,0.1,2h-1.2L162.2,92.5L162.2,92.5z M162.2,89.3h-0.3c-0.6,0-1,0-1.5,0c-0.6,0-1,0.1-1.5,0.3c-0.4,0.1-0.7,0.4-1,0.7
			c-0.3,0.3-0.4,0.7-0.4,1.3c0,0.6,0.1,1,0.6,1.3c0.4,0.3,0.9,0.4,1.3,0.4c0.7,0,1.2-0.1,1.6-0.4c0.4-0.3,0.7-0.6,0.9-0.9
			c0.1-0.4,0.3-0.7,0.3-1.2c0-0.4,0-0.7,0-1V89.3z"/>
	</g>
	<g>
		<defs>
			<rect id="SVGID_47_" x="56.6" y="27.7" width="128.2" height="66.7"/>
		</defs>
		<clipPath id="SVGID_48_">
			<use xlink:href="#SVGID_47_"  style="overflow:visible;"/>
		</clipPath>
		<rect x="165.2" y="80.1" class="st25" width="1.2" height="14"/>
	</g>
	<g>
		<defs>
			<rect id="SVGID_49_" x="56.6" y="27.7" width="128.2" height="66.7"/>
		</defs>
		<clipPath id="SVGID_50_">
			<use xlink:href="#SVGID_49_"  style="overflow:visible;"/>
		</clipPath>
		<path class="st26" d="M169.4,82h-1.2v-1.6h1.2V82z M168.3,84.6h1.2v9.5h-1.2V84.6z"/>
	</g>
	<g>
		<defs>
			<rect id="SVGID_51_" x="56.6" y="27.7" width="128.2" height="66.7"/>
		</defs>
		<clipPath id="SVGID_52_">
			<use xlink:href="#SVGID_51_"  style="overflow:visible;"/>
		</clipPath>
		<path class="st27" d="M176.9,92.5L176.9,92.5c-0.3,0.6-0.7,1-1.3,1.3c-0.6,0.3-1.2,0.4-1.7,0.4c-0.7,0-1.2-0.1-1.6-0.3
			c-0.4-0.1-0.7-0.4-1-0.7c-0.4-0.6-0.6-1.2-0.6-1.6c0-0.7,0.1-1.5,0.6-1.9c0.4-0.4,0.9-0.7,1.5-1c0.6-0.1,1.2-0.3,1.9-0.4
			c0.7,0,1.3,0,1.9,0h0.3v-0.4c0-1.6-0.7-2.5-2.2-2.5c-1,0-1.9,0.3-2.8,0.7v-1c0.9-0.4,1.7-0.6,2.8-0.7c2.2,0,3.3,1.2,3.3,3.5V92
			c0,0.7,0,1.5,0.1,2h-1.2L176.9,92.5L176.9,92.5z M176.7,89.3h-0.3c-0.6,0-1,0-1.5,0c-0.6,0-1,0.1-1.5,0.3c-0.4,0.1-0.7,0.4-1,0.7
			c-0.3,0.3-0.4,0.7-0.4,1.3c0,0.6,0.1,1,0.6,1.3c0.4,0.3,0.9,0.4,1.3,0.4c0.7,0,1.2-0.1,1.6-0.4c0.4-0.3,0.7-0.6,0.9-0.9
			c0.1-0.4,0.3-0.7,0.3-1.2c0-0.4,0-0.7,0-1V89.3z"/>
	</g>
	<g>
		<defs>
			<rect id="SVGID_53_" x="56.6" y="27.7" width="128.2" height="66.7"/>
		</defs>
		<clipPath id="SVGID_54_">
			<use xlink:href="#SVGID_53_"  style="overflow:visible;"/>
		</clipPath>
		<path class="st28" d="M91.1,84c0,0.1-0.1,0.3-0.1,0.3s0,0-0.1,0H91c0.7,0.9,2.3,1.7,4.1,2.6l0,0c-0.6,0.1-1.2,1.3-0.6,2.5
			c0.6,1.3,2.6,2.6,2.9,2.5c0,0,0.7-2.3,0.1-3.6c-0.1-0.3-0.3-0.4-0.4-0.7c1,0.4,1.9,0.7,2.9,1c-0.6,0.3-1.2,1.3-0.6,2.5
			c0.6,1.3,2.6,2.6,2.9,2.5c0,0,0.7-2.3,0.1-3.6c-0.1-0.4-0.4-0.7-0.7-0.9c2.9,0.9,5.1,1.5,5.1,1.5l-0.4-1.2
			c-0.7-0.1-1.5-0.4-2.2-0.6c0.1,0,0.4-0.1,0.6-0.3c1.2-0.7,2.3-2.9,2.2-3.2c0,0-0.6-0.1-1.3-0.1s-1.7,0.1-2.5,0.4
			c-0.7,0.4-1.2,1.2-1.2,1.7V88c-1.2-0.4-2.3-0.7-3.2-1.2c0.1,0,0.3-0.1,0.4-0.3c1.2-0.7,2.3-2.9,2.2-3.2c0,0-0.6-0.1-1.3-0.1
			c-0.7,0-1.7,0.1-2.5,0.4c-0.9,0.6-1.2,1.3-1.3,2c-2-1-3.2-1.9-3.9-2.6c3.8-1,7.6-2.2,11.2-3.6l0.9-2.3c0,0-2.8,1.6-9.5,3.5
			c0.3-0.3,0.6-0.9,0.7-1.5c0.1-1.3-1.3-3.2-1.3-3.2l0,0c-0.3,0-1.9,1.9-2.2,3.2c-0.1,1,0.3,1.7,0.9,2c-0.7,0.1-1.6,0.4-2.5,0.6
			C91,83,91.1,83.5,91.1,84"/>
	</g>
	<g>
		<defs>
			<rect id="SVGID_55_" x="56.6" y="27.7" width="128.2" height="66.7"/>
		</defs>
		<clipPath id="SVGID_56_">
			<use xlink:href="#SVGID_55_"  style="overflow:visible;"/>
		</clipPath>
		<path class="st29" d="M90.4,84.3c-0.7-0.3-1.2-0.7-1.6-1.3h-0.1l0.1-0.1c-0.4-0.7-0.7-1.6-1-2.5c-0.1-0.4-0.3-0.9-0.4-1.3
			c-0.1-0.3-0.3-0.7-0.4-1c-0.7,0.9-1.6,2-1.7,3.1c-0.1,1.2,0.3,2,0.9,2.5c-2.2,0.4-4.7,0.9-7.3,1.3c0.6-0.4,1.2-1.2,1.3-2
			c0.3-1.9-1.6-4.7-1.6-4.7l0,0c-0.4,0-2.8,2.5-3.1,4.4c-0.1,1.3,0.3,2.3,1,2.8c-1.5,0.1-3.1,0.4-4.8,0.6c-0.1,0-0.4,0-0.7,0
			c-0.4,0-0.9,0-1.2,0c-0.7-0.1-1.3-0.3-1.9-0.6c-0.1,0-0.1-0.1-0.3-0.1c-0.6-0.4-1.2-0.9-1.7-1.3c-0.1-0.1-0.3-0.3-0.3-0.3v0.1
			c-0.1,0-0.1-0.1-0.3-0.1c0.1,0,0.3,0,0.3,0c0.4,0,1.7-0.7,2-2.2c0.1-1.3-1.3-3.2-1.3-3.2l0,0c-0.3,0-1.9,1.9-2.2,3.2
			c-0.1,0.6,0,1.2,0.3,1.5c-2.2-1.7-4.4-3.5-5.2-4.1l-1,1.5c0.6,0.4,1.3,0.9,2,1.3c-0.3,0-0.4,0-0.7,0.1c-1.3,0.4-2.5,2.5-2.5,2.5
			c0.1,0.3,2.6,0.9,3.9,0.4c0.9-0.3,1.3-0.9,1.5-1.5c1.6,1.3,2.9,2.5,3.5,3.2c-2.3,0.1-4.7,0.3-7.3,0.4l-1.3,1.7l0,0H62
			c2.6-0.1,6.3-0.4,10.5-1c0,0-0.1,0-0.1,0.1c-0.4,0.4-0.9,2,0.3,3.2c0.9,1,3.2,1.6,3.9,1.7h0.3c0.1-0.4-0.1-3.1-1.2-4.2
			c-0.6-0.6-1.2-0.9-1.7-1c1.6-0.1,3.2-0.4,4.8-0.7c-0.4,0.6-0.9,2.2,0.1,3.5c1,1.3,3.5,2,4.4,2.3h0.3c0.3-0.4,0.1-3.3-1-4.8
			c-0.6-0.7-1.2-1-1.7-1.3c1.2-0.1,2.3-0.4,3.5-0.6c0,0-0.1,0-0.1,0.1c-0.4,0.4-0.7,2.5,0.7,3.8c1,0.9,2.8,1.3,4.1,1.5h1.2
			c0.1-0.6-0.6-3.5-2-4.7c-0.6-0.6-1.3-0.9-1.9-0.9c1.6-0.3,3.2-0.7,4.8-1c0,0,0,0-0.1,0C90.6,84.5,90.6,84.5,90.4,84.3"/>
	</g>
	<g>
		<defs>
			<rect id="SVGID_57_" x="56.6" y="27.7" width="128.2" height="66.7"/>
		</defs>
		<clipPath id="SVGID_58_">
			<use xlink:href="#SVGID_57_"  style="overflow:visible;"/>
		</clipPath>
		<path class="st30" d="M70.6,32.2c-1.5,3.6-2.2,6.7-2.3,9.5C68.1,44,68.4,46,69,48.1c0.1,0,0.1,0,0.1,0c0.7-0.1,1.6-0.4,2.6-0.4
			c1.5,0,2.5,0.4,3.2,1.2c1.7,1.7,1.5,6.7,1,7.7c-0.4,1-1.3,2.2-2.5,2.2h-0.1c-0.4,0-0.7-0.1-1-0.3c-0.3-0.1-0.4-0.3-0.7-0.1
			c-0.1,0-0.3,0.1-0.6,0.1c0.1,2,0,3.9-0.3,5.8c-0.1,0.4-0.9,3.1-1.5,5.2c-0.4,1.7-0.9,2.8-1,3.5c0.3-0.3,0.6-0.6,1-1l0.1-0.1
			c0.7-0.7,1.5-1.5,1.9-2.3c0.6-0.7,1.6-2.2,2.6-3.6c0,0.4-0.1,1-0.1,1.5s-0.1,1-0.1,1.5c-0.1,1.9-0.4,3.9-0.7,5.7
			c-0.7,3.5-1.7,7.7-4.2,10.9c1-0.4,2-1.2,3.2-2.2c3.6-3.2,6.4-8,8.6-15.1c0-0.3,0.1-0.4,0.1-0.7c-0.3-1.3-0.7-2.6-1.2-3.9
			c-2-6.1-2.8-12.2-2.5-19.4c0.1-2.8,0.6-5.2,1.3-7.4c-0.1-0.1-0.1-0.3-0.3-0.6c-1.6-1.7-2.9-3.6-3.9-5.5c-0.1-0.3-0.3-0.7-0.3-1.2
			c-0.1-0.4-0.3-1.6-0.6-1.7c0,0-0.1,0-0.3,0.3C71.9,29,71.2,30.8,70.6,32.2"/>
	</g>
	<g>
		<defs>
			<rect id="SVGID_59_" x="56.6" y="27.7" width="128.2" height="66.7"/>
		</defs>
		<clipPath id="SVGID_60_">
			<use xlink:href="#SVGID_59_"  style="overflow:visible;"/>
		</clipPath>
		<path class="st31" d="M91.9,46.9c0,0.1,0,0.1,0,0.3l0,0l0,0c0,0.1,0,0.3,0,0.4C92,48.5,92,49.3,92,50c0.4-0.1,0.9-0.3,1.6-0.4
			c1.3,0,2.3,0,3.1,0.4c0-0.4,0-0.9,0-1.3c0-1,0.1-2,0-2.9c-0.3-2-1.2-3.6-2.2-5.2c-1.2-1.9-1.7-3.6-2-5.5c0-0.3,0-0.7,0-1
			c0-0.3,0-0.6,0-0.7c-0.1,0.1-0.1,0.3-0.1,0.3c0,0.1,0,0.1-0.1,0.1c-0.3,0.6-0.6,1-0.9,1.5c-0.7,1.3-1.6,2.5-1.9,3.9
			c0.6,1.3,1.2,2.6,1.6,3.9C91.3,44.3,91.7,45.6,91.9,46.9L91.9,46.9"/>
	</g>
	<g>
		<defs>
			<rect id="SVGID_61_" x="56.6" y="27.7" width="128.2" height="66.7"/>
		</defs>
		<clipPath id="SVGID_62_">
			<use xlink:href="#SVGID_61_"  style="overflow:visible;"/>
		</clipPath>
		<path class="st32" d="M95.2,59.7c-0.1,0-0.3,0-0.4,0c-1.5,0-2.9-0.6-3.8-1.7c-0.1-0.1-0.3-0.3-0.3-0.4c-0.1,0.6-0.3,1.2-0.6,1.6
			c-1.5,4.2-2.2,8.6-2.9,13.1L87.1,73c-0.1,1-0.3,1.6,0,2.6l0.1,0.3c0.3,1,0.6,1.9,1,2.9c0.1,0.4,0.3,0.9,0.4,1.3
			c0.4,1,0.7,2.3,1.6,3.1c0-0.3-0.1-0.6-0.1-1C90,81.6,90,81,89.8,80.4c0-1.5,0.1-3.1,0.4-4.5c0.1-1,0.4-2.5,1-3.8
			c0.1-0.1,0.1-0.4,0.3-0.6c0.3-0.4,0.3-0.7,0.3-0.7l1.5-2.2c0,0.1,0,0.3,0,0.3c-0.7,1.6,0.3,4.1,1.6,5.8c0.6,0.7,1.2,1.5,1.7,2
			c0.1,0,0.3,0.3,0.6,0.4c-0.1-0.4-0.4-0.7-0.6-1c-0.6-1.2-1.3-2.5-1.6-3.9c-0.3-2-0.3-4.4-0.1-6.4v-0.4c0-1.2,0.3-2.2,0.4-3.2
			c0.1-0.9,0.3-1.7,0.4-2.6C95.7,59.6,95.4,59.7,95.2,59.7"/>
	</g>
	<g>
		<defs>
			<rect id="SVGID_63_" x="56.6" y="27.7" width="128.2" height="66.7"/>
		</defs>
		<clipPath id="SVGID_64_">
			<use xlink:href="#SVGID_63_"  style="overflow:visible;"/>
		</clipPath>
		<path class="st33" d="M78,44c-0.1,2.5-0.1,4.8,0,7.1c0-0.1,0.1-0.3,0.1-0.4c0.1-0.3,0.3-0.6,0.6-0.9l0,0h0.1c1-0.3,2-0.4,3.2-0.4
			c0.9,0,1.7,0.1,2.5,0.1H85c0.3,0,0.4,0.1,0.7,0.1c1.3,0.4,2,1.3,2,2.9c0,0.9,0,3.1-0.4,4.8c-0.1,0.6-0.3,1.2-0.7,1.6
			C86,59.9,85,60.5,84,60.5h-0.1c-1.5,0-3.5,0-4.7-1.2c0.3,1.3,0.7,2.6,1.2,3.8c2,6.3,3.1,12.5,2.9,18.6c1.9-3.9,2.5-8,3.2-12.4
			c0.1-1.3,0.4-2.8,0.7-4.1c0.4-2.2,1-4.2,1.7-6.4c0.4-1.2,0.7-2.5,1.2-3.8c0-0.1,0-0.4,0-0.6c0-0.3,0.1-0.7,0.1-1
			c0.1-0.7,0.3-1.5,0.6-2.2c0.1-1.5,0.3-2.8,0.1-4.2l0,0l0,0c-0.4-3.9-2.3-7.4-4.2-10.8c-1-1.7-1.9-3.5-2.8-5.2
			c0-0.1-0.1-0.1-0.1-0.3c-0.1-0.3-0.3-0.9-0.6-1l0,0c-0.9,0.9-1.6,2-2.2,3.2c-0.1,0.3-0.3,0.4-0.4,0.7C79.1,36.4,78.2,39.9,78,44"
			/>
	</g>
	<g>
		<defs>
			<rect id="SVGID_65_" x="56.6" y="27.7" width="128.2" height="66.7"/>
		</defs>
		<clipPath id="SVGID_66_">
			<use xlink:href="#SVGID_65_"  style="overflow:visible;"/>
		</clipPath>
		<polyline class="st34" points="68.4,49.3 68.4,49.3 68.4,49.3 68.4,49.3 		"/>
	</g>
	<g>
		<defs>
			<rect id="SVGID_67_" x="56.6" y="27.7" width="128.2" height="66.7"/>
		</defs>
		<clipPath id="SVGID_68_">
			<use xlink:href="#SVGID_67_"  style="overflow:visible;"/>
		</clipPath>
		<polyline class="st35" points="68.4,49.3 68.4,49.3 68.4,49.3 68.4,49.3 		"/>
	</g>
	<g>
		<defs>
			<rect id="SVGID_69_" x="56.6" y="27.7" width="128.2" height="66.7"/>
		</defs>
		<clipPath id="SVGID_70_">
			<use xlink:href="#SVGID_69_"  style="overflow:visible;"/>
		</clipPath>
		<path class="st36" d="M87.1,51.7c-0.1-0.4-0.4-0.7-0.7-1c0.9,1-0.3,1.9-2,2.3c-0.4,0-0.9,0-1.2,0c-0.1,0-0.3,0-0.6-0.1
			c-0.6-0.1-1.5-0.1-2-0.4c-0.3-0.1-0.6-0.4-0.7-0.7c-0.3-0.4-0.3-0.9-0.3-1.3c0,0,0,0-0.1,0l0,0c-0.7,0.3-0.9,1.6-0.9,2.8
			c0,0.3,0,0.4,0,0.7c0,0.4,0.1,0.9,0.1,1.3c0,0.1,0,0.3,0.1,0.4c0.1,0.9,0,0.1,0,0c0.3,1,0.4,1.9,1.2,2.6c0.4,0.4,1.2,0.7,1.9,0.9
			l0,0c0.7,0.1,1.9,0.3,2.8,0.1c0.3,0,0.6-0.1,0.9-0.3l0,0c0,0,0.1,0,0.1-0.1l0,0c0,0,0,0,0.1-0.1c0.1-0.1,0.3-0.3,0.4-0.4l0,0
			c0.3-0.3,0.4-0.6,0.4-1C87.4,55.7,87.6,53.2,87.1,51.7"/>
	</g>
	<g>
		<defs>
			<rect id="SVGID_71_" x="56.6" y="27.7" width="128.2" height="66.7"/>
		</defs>
		<clipPath id="SVGID_72_">
			<use xlink:href="#SVGID_71_"  style="overflow:visible;"/>
		</clipPath>
		<path class="st37" d="M75.4,55.1v-0.1v-0.1l0,0c0.1-1.5,0.1-3.9-0.9-5.1l-0.1-0.1c-0.1-0.1-0.3-0.1-0.3-0.3
			c-0.1-0.1-0.3-0.1-0.4-0.3v0.1l0,0c-0.4,0.9-2.3,1.2-3.1,1.2c-0.3,0-0.7,0-1-0.1c-0.4-0.1-0.9-0.3-1-0.6v-0.1
			c-0.6,0.4-1.3,1.2-1.5,2.5V52c-0.1,1.2,0.1,2.3,0.7,3.3c0,0.1,0.1,0.1,0.1,0.3l0,0l0,0c0.3,0.4,0.7,0.9,1.2,1
			c0.3,0.1,0.6,0.1,0.7,0.3c0.1,0,0.3,0.1,0.4,0.1c0.3,0.1,0.6,0.1,0.7,0.1c0,0,0,0,0.1,0s0.1,0,0.3,0c0.1,0,0.4-0.1,0.6-0.1
			c0.1,0,0.3,0,0.4,0.1l0,0l0,0c0.1,0,0.3,0.1,0.4,0.1c0.1,0.1,0.4,0.3,0.7,0.3s0.6-0.1,0.9-0.3l0,0l0,0l0,0c0,0,0,0,0.1-0.1l0,0
			l0,0c0-0.1,0.1-0.1,0.1-0.3c0.1-0.1,0.3-0.4,0.4-0.7c0-0.1,0.1-0.4,0.1-0.9l0,0C75.4,55.2,75.4,55.1,75.4,55.1"/>
	</g>
	<g>
		<defs>
			<rect id="SVGID_73_" x="56.6" y="27.7" width="128.2" height="66.7"/>
		</defs>
		<clipPath id="SVGID_74_">
			<use xlink:href="#SVGID_73_"  style="overflow:visible;"/>
		</clipPath>
		<path class="st38" d="M74.4,49.3C75.9,50.7,74.3,49.1,74.4,49.3"/>
	</g>
	<g>
		<defs>
			<rect id="SVGID_75_" x="56.6" y="27.7" width="128.2" height="66.7"/>
		</defs>
		<clipPath id="SVGID_76_">
			<use xlink:href="#SVGID_75_"  style="overflow:visible;"/>
		</clipPath>
		<path class="st39" d="M98.1,53.5c0-0.1-0.1-0.3-0.1-0.3c-0.1-0.3-0.1-0.6-0.3-0.7c-0.1-0.1-0.1-0.3-0.3-0.4c0-0.1-0.1-0.1-0.1-0.3
			c0,0.3-0.1,0.6-0.3,0.7l0,0c-0.6,0.3-1.5,0.4-2.3,0.3c-1-0.1-2-0.6-2.2-1.5c0-0.1,0-0.1,0-0.3l-0.1,0.1l-0.1,0.1l0,0l0,0
			c-0.7,0.9-0.7,2.3-1,3.5c0,0.1,0,0.3,0,0.3v0.1v0.1v0.1v0.1c0,0.1,0,0.3,0.1,0.4l0,0v0.1c0.1,0.4,0.3,0.9,0.6,1.2l0.1,0.1l0,0
			c0.1,0.1,0.1,0.1,0.3,0.3l0.1,0.1c0,0,0.1,0,0.1,0.1c0.1,0.1,0.1,0.1,0.3,0.1c0,0,0,0,0.1,0h0.1c0.1,0,0.1,0.1,0.3,0.1l0,0
			c0.7,0.3,1.3,0.4,1.7,0.3h0.1c0.3,0,0.4-0.1,0.7-0.1c0.4-0.1,0.7-0.4,1-0.7c0,0,0,0,0.1-0.1c0.6-0.7,0.9-1.6,1-2.6
			c0.1-0.4,0.1-0.9,0.1-1.3C98.1,54.1,98.1,54.1,98.1,53.5"/>
	</g>
</g>
</svg>
